<?xml version="1.0" encoding="utf-8"?>
<!-- Svg Vector Icons : http://www.onlinewebfonts.com/icon -->
<!DOCTYPE svg PUBLIC "-//W3C//DTD SVG 1.1//EN" "http://www.w3.org/Graphics/SVG/1.1/DTD/svg11.dtd">
<svg version="1.1" xmlns="http://www.w3.org/2000/svg" xmlns:xlink="http://www.w3.org/1999/xlink" x="0px" y="0px" viewBox="0 0 1000 1000" enable-background="new 0 0 1000 1000" xml:space="preserve">
<metadata> Svg Vector Icons : http://www.onlinewebfonts.com/icon </metadata>
<g><path d="M753.3,655.1l65.1-65.1c8.1-8.1,12.1-17.7,12.1-28.7s-4-20.6-12.1-28.7L528.7,242.9c-8.1-8.1-17.7-12.1-28.7-12.1s-20.6,4-28.7,12.1L181.6,532.5c-8.1,8.1-12.1,17.7-12.1,28.7s4,20.6,12.1,28.7l65.1,65.1c8.1,8.1,17.7,12.1,28.7,12.1c11.1,0,20.6-4,28.7-12.1L500,459.2l195.9,195.9c8.1,8.1,17.7,12.1,28.7,12.1S745.2,663.1,753.3,655.1z M990,500c0,88.9-21.9,170.9-65.7,246C880.5,821,821,880.5,746,924.3C670.9,968.1,588.9,990,500,990c-88.9,0-170.9-21.9-246-65.7C179,880.5,119.5,821.1,75.7,746C31.9,670.8,10,588.9,10,500c0-88.9,21.9-170.8,65.7-246C119.5,178.9,179,119.5,254,75.7C329.1,31.9,411.1,10,500,10c88.9,0,170.9,21.9,246,65.7C821,119.5,880.5,179,924.3,254C968.1,329.1,990,411.1,990,500L990,500z"/></g>
</svg>